# xmcd CD database file
#
# Track frame offsets:
#	200
#	5370
#	28215
#	49285
#	68407
#	93510
#	115900
#	117767
#	134220
#	135925
#	156315
#	179100
#	180525
#	203030
#	205130
#	232640
#	250680
#	253190
#
# Disc length: 3511 seconds
#
# Revision: 2
# Processed by: cddbd v1.4PL0 Copyright (c) Steve Scherf et al.
# Submitted via: CDex 1.50beta9
#
DISCID=fa0db512
DTITLE=Harmony - Let There Be Harmony
DYEAR=1990
DGENRE=Blues
TTITLE0=Looking At A Black Man
TTITLE1=I Want To Thank You
TTITLE2=Poundcake
TTITLE3=What You Need
TTITLE4=Take My Breath Away
TTITLE5=Sing Unto God
TTITLE6=Exhibit A
TTITLE7=Tear It Up
TTITLE8=Exhibit B
TTITLE9=Mother Africa
TTITLE10=Your Love Ain't Right
TTITLE11=Exhibit C
TTITLE12=Art Of War
TTITLE13=Exhibit D
TTITLE14=We The People 
TTITLE15=There's Only One
TTITLE16=Exhibit E
TTITLE17=Eye Witness Blues
EXTD=YEAR: 1990
EXTT0=
EXTT1=
EXTT2=
EXTT3=
EXTT4=
EXTT5=
EXTT6=
EXTT7=
EXTT8=
EXTT9=
EXTT10=
EXTT11=
EXTT12=
EXTT13=
EXTT14=
EXTT15=
EXTT16=
EXTT17=
PLAYORDER=
